<svg height="766" width="720" xmlns="http://www.w3.org/2000/svg">
<rect height="766" fill="#555" width="720"></rect>
<text fill="#7f7" font-family="Courier New" font-size="12" xml:space="preserve">
<tspan x="10" y="26">14 megabytes installed</tspan>
<tspan x="10" y="42"></tspan>
<tspan x="10" y="58">node_modules</tspan>
<tspan x="10" y="74">└─┬ telegram-api@0.7.9 </tspan>
<tspan x="10" y="90">  ├─┬ babel-polyfill@6.23.0 </tspan>
<tspan x="10" y="106">  │ ├── babel-runtime@6.23.0 </tspan>
<tspan x="10" y="122">  │ ├── core-js@2.4.1 </tspan>
<tspan x="10" y="138">  │ └── regenerator-runtime@0.10.3 </tspan>
<tspan x="10" y="154">  ├── mime@1.3.4 </tspan>
<tspan x="10" y="170">  ├── qs@4.0.0 </tspan>
<tspan x="10" y="186">  └─┬ unirest@0.4.2 </tspan>
<tspan x="10" y="202">    ├─┬ form-data@0.2.0 </tspan>
<tspan x="10" y="218">    │ ├── async@0.9.2 </tspan>
<tspan x="10" y="234">    │ ├─┬ combined-stream@0.0.7 </tspan>
<tspan x="10" y="250">    │ │ └── delayed-stream@0.0.5 </tspan>
<tspan x="10" y="266">    │ └─┬ mime-types@2.0.14 </tspan>
<tspan x="10" y="282">    │   └── mime-db@1.12.0 </tspan>
<tspan x="10" y="298">    ├── mime@1.2.11 </tspan>
<tspan x="10" y="314">    └─┬ request@2.51.0 </tspan>
<tspan x="10" y="330">      ├── aws-sign2@0.5.0 </tspan>
<tspan x="10" y="346">      ├─┬ bl@0.9.5 </tspan>
<tspan x="10" y="362">      │ └─┬ readable-stream@1.0.34 </tspan>
<tspan x="10" y="378">      │   ├── core-util-is@1.0.2 </tspan>
<tspan x="10" y="394">      │   ├── inherits@2.0.3 </tspan>
<tspan x="10" y="410">      │   ├── isarray@0.0.1 </tspan>
<tspan x="10" y="426">      │   └── string_decoder@0.10.31 </tspan>
<tspan x="10" y="442">      ├── caseless@0.8.0 </tspan>
<tspan x="10" y="458">      ├── forever-agent@0.5.2 </tspan>
<tspan x="10" y="474">      ├─┬ hawk@1.1.1 </tspan>
<tspan x="10" y="490">      │ ├── boom@0.4.2 </tspan>
<tspan x="10" y="506">      │ ├── cryptiles@0.2.2 </tspan>
<tspan x="10" y="522">      │ ├── hoek@0.9.1 </tspan>
<tspan x="10" y="538">      │ └── sntp@0.2.4 </tspan>
<tspan x="10" y="554">      ├─┬ http-signature@0.10.1 </tspan>
<tspan x="10" y="570">      │ ├── asn1@0.1.11 </tspan>
<tspan x="10" y="586">      │ ├── assert-plus@0.1.5 </tspan>
<tspan x="10" y="602">      │ └── ctype@0.5.3 </tspan>
<tspan x="10" y="618">      ├── json-stringify-safe@5.0.1 </tspan>
<tspan x="10" y="634">      ├── mime-types@1.0.2 </tspan>
<tspan x="10" y="650">      ├── node-uuid@1.4.8 </tspan>
<tspan x="10" y="666">      ├── oauth-sign@0.5.0 </tspan>
<tspan x="10" y="682">      ├── qs@2.3.3 </tspan>
<tspan x="10" y="698">      ├── stringstream@0.0.5 </tspan>
<tspan x="10" y="714">      ├─┬ tough-cookie@2.3.2 </tspan>
<tspan x="10" y="730">      │ └── punycode@1.4.1 </tspan>
<tspan x="10" y="746">      └── tunnel-agent@0.4.3</tspan>
</text>
</svg>
